%TF.GenerationSoftware,KiCad,Pcbnew,4.0.6*%
%TF.CreationDate,2017-07-29T18:57:00+02:00*%
%TF.ProjectId,ChipS,43686970532E6B696361645F70636200,rev?*%
%TF.FileFunction,Copper,L2,Bot,Signal*%
%FSLAX46Y46*%
G04 Gerber Fmt 4.6, Leading zero omitted, Abs format (unit mm)*
G04 Created by KiCad (PCBNEW 4.0.6) date 07/29/17 18:57:00*
%MOMM*%
%LPD*%
G01*
G04 APERTURE LIST*
%ADD10C,0.100000*%
%ADD11C,1.500000*%
%ADD12R,1.600000X1.600000*%
%ADD13O,1.600000X1.600000*%
%ADD14C,0.250000*%
G04 APERTURE END LIST*
D10*
D11*
X103500000Y-80000000D03*
D12*
X89716000Y-72392200D03*
D13*
X97336000Y-64772200D03*
X92256000Y-72392200D03*
X94796000Y-64772200D03*
X94796000Y-72392200D03*
X92256000Y-64772200D03*
X97336000Y-72392200D03*
X89716000Y-64772200D03*
D14*
G36*
X115300000Y-75710051D02*
X107710050Y-83300000D01*
X76700000Y-83300000D01*
X76700000Y-80964776D01*
X102712000Y-80964776D01*
X102780371Y-81203147D01*
X103295574Y-81386953D01*
X103841899Y-81359608D01*
X104219629Y-81203147D01*
X104288000Y-80964776D01*
X103500000Y-80176777D01*
X102712000Y-80964776D01*
X76700000Y-80964776D01*
X76700000Y-79795574D01*
X102113047Y-79795574D01*
X102140392Y-80341899D01*
X102296853Y-80719629D01*
X102535224Y-80788000D01*
X103323223Y-80000000D01*
X103676777Y-80000000D01*
X104464776Y-80788000D01*
X104703147Y-80719629D01*
X104886953Y-80204426D01*
X104859608Y-79658101D01*
X104703147Y-79280371D01*
X104464776Y-79212000D01*
X103676777Y-80000000D01*
X103323223Y-80000000D01*
X102535224Y-79212000D01*
X102296853Y-79280371D01*
X102113047Y-79795574D01*
X76700000Y-79795574D01*
X76700000Y-79035224D01*
X102712000Y-79035224D01*
X103500000Y-79823223D01*
X104288000Y-79035224D01*
X104219629Y-78796853D01*
X103704426Y-78613047D01*
X103158101Y-78640392D01*
X102780371Y-78796853D01*
X102712000Y-79035224D01*
X76700000Y-79035224D01*
X76700000Y-71592200D01*
X88278756Y-71592200D01*
X88278756Y-73192200D01*
X88322337Y-73423811D01*
X88459219Y-73636532D01*
X88668076Y-73779238D01*
X88916000Y-73829444D01*
X90516000Y-73829444D01*
X90747611Y-73785863D01*
X90960332Y-73648981D01*
X91103038Y-73440124D01*
X91138764Y-73263703D01*
X91248373Y-73427744D01*
X91710676Y-73736645D01*
X92256000Y-73845117D01*
X92801324Y-73736645D01*
X93263627Y-73427744D01*
X93526000Y-73035075D01*
X93788373Y-73427744D01*
X94250676Y-73736645D01*
X94796000Y-73845117D01*
X95341324Y-73736645D01*
X95803627Y-73427744D01*
X96066000Y-73035075D01*
X96328373Y-73427744D01*
X96790676Y-73736645D01*
X97336000Y-73845117D01*
X97881324Y-73736645D01*
X98343627Y-73427744D01*
X98652528Y-72965441D01*
X98761000Y-72420117D01*
X98761000Y-72364283D01*
X98652528Y-71818959D01*
X98343627Y-71356656D01*
X97881324Y-71047755D01*
X97336000Y-70939283D01*
X96790676Y-71047755D01*
X96328373Y-71356656D01*
X96066000Y-71749325D01*
X95803627Y-71356656D01*
X95341324Y-71047755D01*
X94796000Y-70939283D01*
X94250676Y-71047755D01*
X93788373Y-71356656D01*
X93526000Y-71749325D01*
X93263627Y-71356656D01*
X92801324Y-71047755D01*
X92256000Y-70939283D01*
X91710676Y-71047755D01*
X91248373Y-71356656D01*
X91139564Y-71519500D01*
X91109663Y-71360589D01*
X90972781Y-71147868D01*
X90763924Y-71005162D01*
X90516000Y-70954956D01*
X88916000Y-70954956D01*
X88684389Y-70998537D01*
X88471668Y-71135419D01*
X88328962Y-71344276D01*
X88278756Y-71592200D01*
X76700000Y-71592200D01*
X76700000Y-65117722D01*
X88333514Y-65117722D01*
X88570975Y-65620475D01*
X88982756Y-65994086D01*
X89370479Y-66154676D01*
X89591000Y-66034777D01*
X89591000Y-64897200D01*
X88452733Y-64897200D01*
X88333514Y-65117722D01*
X76700000Y-65117722D01*
X76700000Y-64426678D01*
X88333514Y-64426678D01*
X88452733Y-64647200D01*
X89591000Y-64647200D01*
X89591000Y-63509623D01*
X89841000Y-63509623D01*
X89841000Y-64647200D01*
X89861000Y-64647200D01*
X89861000Y-64897200D01*
X89841000Y-64897200D01*
X89841000Y-66034777D01*
X90061521Y-66154676D01*
X90449244Y-65994086D01*
X90861025Y-65620475D01*
X90969619Y-65390559D01*
X91248373Y-65807744D01*
X91710676Y-66116645D01*
X92256000Y-66225117D01*
X92801324Y-66116645D01*
X93263627Y-65807744D01*
X93526000Y-65415075D01*
X93788373Y-65807744D01*
X94250676Y-66116645D01*
X94796000Y-66225117D01*
X95341324Y-66116645D01*
X95803627Y-65807744D01*
X96066000Y-65415075D01*
X96328373Y-65807744D01*
X96790676Y-66116645D01*
X97336000Y-66225117D01*
X97881324Y-66116645D01*
X98343627Y-65807744D01*
X98652528Y-65345441D01*
X98761000Y-64800117D01*
X98761000Y-64744283D01*
X98652528Y-64198959D01*
X98343627Y-63736656D01*
X97881324Y-63427755D01*
X97336000Y-63319283D01*
X96790676Y-63427755D01*
X96328373Y-63736656D01*
X96066000Y-64129325D01*
X95803627Y-63736656D01*
X95341324Y-63427755D01*
X94796000Y-63319283D01*
X94250676Y-63427755D01*
X93788373Y-63736656D01*
X93526000Y-64129325D01*
X93263627Y-63736656D01*
X92801324Y-63427755D01*
X92256000Y-63319283D01*
X91710676Y-63427755D01*
X91248373Y-63736656D01*
X90969619Y-64153841D01*
X90861025Y-63923925D01*
X90449244Y-63550314D01*
X90061521Y-63389724D01*
X89841000Y-63509623D01*
X89591000Y-63509623D01*
X89370479Y-63389724D01*
X88982756Y-63550314D01*
X88570975Y-63923925D01*
X88333514Y-64426678D01*
X76700000Y-64426678D01*
X76700000Y-59700000D01*
X115300000Y-59700000D01*
X115300000Y-75710051D01*
X115300000Y-75710051D01*
G37*
X115300000Y-75710051D02*
X107710050Y-83300000D01*
X76700000Y-83300000D01*
X76700000Y-80964776D01*
X102712000Y-80964776D01*
X102780371Y-81203147D01*
X103295574Y-81386953D01*
X103841899Y-81359608D01*
X104219629Y-81203147D01*
X104288000Y-80964776D01*
X103500000Y-80176777D01*
X102712000Y-80964776D01*
X76700000Y-80964776D01*
X76700000Y-79795574D01*
X102113047Y-79795574D01*
X102140392Y-80341899D01*
X102296853Y-80719629D01*
X102535224Y-80788000D01*
X103323223Y-80000000D01*
X103676777Y-80000000D01*
X104464776Y-80788000D01*
X104703147Y-80719629D01*
X104886953Y-80204426D01*
X104859608Y-79658101D01*
X104703147Y-79280371D01*
X104464776Y-79212000D01*
X103676777Y-80000000D01*
X103323223Y-80000000D01*
X102535224Y-79212000D01*
X102296853Y-79280371D01*
X102113047Y-79795574D01*
X76700000Y-79795574D01*
X76700000Y-79035224D01*
X102712000Y-79035224D01*
X103500000Y-79823223D01*
X104288000Y-79035224D01*
X104219629Y-78796853D01*
X103704426Y-78613047D01*
X103158101Y-78640392D01*
X102780371Y-78796853D01*
X102712000Y-79035224D01*
X76700000Y-79035224D01*
X76700000Y-71592200D01*
X88278756Y-71592200D01*
X88278756Y-73192200D01*
X88322337Y-73423811D01*
X88459219Y-73636532D01*
X88668076Y-73779238D01*
X88916000Y-73829444D01*
X90516000Y-73829444D01*
X90747611Y-73785863D01*
X90960332Y-73648981D01*
X91103038Y-73440124D01*
X91138764Y-73263703D01*
X91248373Y-73427744D01*
X91710676Y-73736645D01*
X92256000Y-73845117D01*
X92801324Y-73736645D01*
X93263627Y-73427744D01*
X93526000Y-73035075D01*
X93788373Y-73427744D01*
X94250676Y-73736645D01*
X94796000Y-73845117D01*
X95341324Y-73736645D01*
X95803627Y-73427744D01*
X96066000Y-73035075D01*
X96328373Y-73427744D01*
X96790676Y-73736645D01*
X97336000Y-73845117D01*
X97881324Y-73736645D01*
X98343627Y-73427744D01*
X98652528Y-72965441D01*
X98761000Y-72420117D01*
X98761000Y-72364283D01*
X98652528Y-71818959D01*
X98343627Y-71356656D01*
X97881324Y-71047755D01*
X97336000Y-70939283D01*
X96790676Y-71047755D01*
X96328373Y-71356656D01*
X96066000Y-71749325D01*
X95803627Y-71356656D01*
X95341324Y-71047755D01*
X94796000Y-70939283D01*
X94250676Y-71047755D01*
X93788373Y-71356656D01*
X93526000Y-71749325D01*
X93263627Y-71356656D01*
X92801324Y-71047755D01*
X92256000Y-70939283D01*
X91710676Y-71047755D01*
X91248373Y-71356656D01*
X91139564Y-71519500D01*
X91109663Y-71360589D01*
X90972781Y-71147868D01*
X90763924Y-71005162D01*
X90516000Y-70954956D01*
X88916000Y-70954956D01*
X88684389Y-70998537D01*
X88471668Y-71135419D01*
X88328962Y-71344276D01*
X88278756Y-71592200D01*
X76700000Y-71592200D01*
X76700000Y-65117722D01*
X88333514Y-65117722D01*
X88570975Y-65620475D01*
X88982756Y-65994086D01*
X89370479Y-66154676D01*
X89591000Y-66034777D01*
X89591000Y-64897200D01*
X88452733Y-64897200D01*
X88333514Y-65117722D01*
X76700000Y-65117722D01*
X76700000Y-64426678D01*
X88333514Y-64426678D01*
X88452733Y-64647200D01*
X89591000Y-64647200D01*
X89591000Y-63509623D01*
X89841000Y-63509623D01*
X89841000Y-64647200D01*
X89861000Y-64647200D01*
X89861000Y-64897200D01*
X89841000Y-64897200D01*
X89841000Y-66034777D01*
X90061521Y-66154676D01*
X90449244Y-65994086D01*
X90861025Y-65620475D01*
X90969619Y-65390559D01*
X91248373Y-65807744D01*
X91710676Y-66116645D01*
X92256000Y-66225117D01*
X92801324Y-66116645D01*
X93263627Y-65807744D01*
X93526000Y-65415075D01*
X93788373Y-65807744D01*
X94250676Y-66116645D01*
X94796000Y-66225117D01*
X95341324Y-66116645D01*
X95803627Y-65807744D01*
X96066000Y-65415075D01*
X96328373Y-65807744D01*
X96790676Y-66116645D01*
X97336000Y-66225117D01*
X97881324Y-66116645D01*
X98343627Y-65807744D01*
X98652528Y-65345441D01*
X98761000Y-64800117D01*
X98761000Y-64744283D01*
X98652528Y-64198959D01*
X98343627Y-63736656D01*
X97881324Y-63427755D01*
X97336000Y-63319283D01*
X96790676Y-63427755D01*
X96328373Y-63736656D01*
X96066000Y-64129325D01*
X95803627Y-63736656D01*
X95341324Y-63427755D01*
X94796000Y-63319283D01*
X94250676Y-63427755D01*
X93788373Y-63736656D01*
X93526000Y-64129325D01*
X93263627Y-63736656D01*
X92801324Y-63427755D01*
X92256000Y-63319283D01*
X91710676Y-63427755D01*
X91248373Y-63736656D01*
X90969619Y-64153841D01*
X90861025Y-63923925D01*
X90449244Y-63550314D01*
X90061521Y-63389724D01*
X89841000Y-63509623D01*
X89591000Y-63509623D01*
X89370479Y-63389724D01*
X88982756Y-63550314D01*
X88570975Y-63923925D01*
X88333514Y-64426678D01*
X76700000Y-64426678D01*
X76700000Y-59700000D01*
X115300000Y-59700000D01*
X115300000Y-75710051D01*
M02*
