%TF.GenerationSoftware,KiCad,Pcbnew,4.0.6*%
%TF.CreationDate,2017-08-22T22:22:21+02:00*%
%TF.ProjectId,ChipS,43686970532E6B696361645F70636200,rev?*%
%TF.FileFunction,Legend,Bot*%
%FSLAX46Y46*%
G04 Gerber Fmt 4.6, Leading zero omitted, Abs format (unit mm)*
G04 Created by KiCad (PCBNEW 4.0.6) date 08/22/17 22:22:21*
%MOMM*%
%LPD*%
G01*
G04 APERTURE LIST*
%ADD10C,0.100000*%
%ADD11C,0.300000*%
%ADD12C,0.200000*%
%ADD13C,0.250000*%
G04 APERTURE END LIST*
D10*
D11*
X94428570Y-76178571D02*
X94285713Y-76178571D01*
X94142856Y-76250000D01*
X94071427Y-76321429D01*
X93999998Y-76464286D01*
X93928570Y-76750000D01*
X93928570Y-77107143D01*
X93999998Y-77392857D01*
X94071427Y-77535714D01*
X94142856Y-77607143D01*
X94285713Y-77678571D01*
X94428570Y-77678571D01*
X94571427Y-77607143D01*
X94642856Y-77535714D01*
X94714284Y-77392857D01*
X94785713Y-77107143D01*
X94785713Y-76750000D01*
X94714284Y-76464286D01*
X94642856Y-76321429D01*
X94571427Y-76250000D01*
X94428570Y-76178571D01*
X93428570Y-76178571D02*
X92428570Y-76178571D01*
X93071427Y-77678571D01*
X90785714Y-76107143D02*
X92071428Y-78035714D01*
X90357142Y-76321429D02*
X90285713Y-76250000D01*
X90142856Y-76178571D01*
X89785713Y-76178571D01*
X89642856Y-76250000D01*
X89571427Y-76321429D01*
X89499999Y-76464286D01*
X89499999Y-76607143D01*
X89571427Y-76821429D01*
X90428570Y-77678571D01*
X89499999Y-77678571D01*
X88571428Y-76178571D02*
X88428571Y-76178571D01*
X88285714Y-76250000D01*
X88214285Y-76321429D01*
X88142856Y-76464286D01*
X88071428Y-76750000D01*
X88071428Y-77107143D01*
X88142856Y-77392857D01*
X88214285Y-77535714D01*
X88285714Y-77607143D01*
X88428571Y-77678571D01*
X88571428Y-77678571D01*
X88714285Y-77607143D01*
X88785714Y-77535714D01*
X88857142Y-77392857D01*
X88928571Y-77107143D01*
X88928571Y-76750000D01*
X88857142Y-76464286D01*
X88785714Y-76321429D01*
X88714285Y-76250000D01*
X88571428Y-76178571D01*
X86642857Y-77678571D02*
X87500000Y-77678571D01*
X87071428Y-77678571D02*
X87071428Y-76178571D01*
X87214285Y-76392857D01*
X87357143Y-76535714D01*
X87500000Y-76607143D01*
X86142857Y-76178571D02*
X85142857Y-76178571D01*
X85785714Y-77678571D01*
X111428571Y-63853571D02*
X110571428Y-63853571D01*
X110999999Y-65353571D02*
X110999999Y-63853571D01*
X110785714Y-67475000D02*
X110071428Y-67475000D01*
X110928571Y-67903571D02*
X110428571Y-66403571D01*
X109928571Y-67903571D01*
X110250000Y-70453571D02*
X110250000Y-68953571D01*
X109678572Y-68953571D01*
X109535714Y-69025000D01*
X109464286Y-69096429D01*
X109392857Y-69239286D01*
X109392857Y-69453571D01*
X109464286Y-69596429D01*
X109535714Y-69667857D01*
X109678572Y-69739286D01*
X110250000Y-69739286D01*
X109607143Y-72217857D02*
X109107143Y-72217857D01*
X108892857Y-73003571D02*
X109607143Y-73003571D01*
X109607143Y-71503571D01*
X108892857Y-71503571D01*
D12*
X105000000Y-62000000D02*
X112000000Y-62000000D01*
X105000000Y-75000000D02*
X105000000Y-62000000D01*
X115000000Y-75000000D02*
X105000000Y-75000000D01*
X115000000Y-62000000D02*
X115000000Y-75000000D01*
X105000000Y-62000000D02*
X115000000Y-62000000D01*
D11*
X79928571Y-66853571D02*
X79071428Y-66853571D01*
X79499999Y-68353571D02*
X79499999Y-66853571D01*
X79857143Y-70475000D02*
X79142857Y-70475000D01*
X80000000Y-70903571D02*
X79500000Y-69403571D01*
X79000000Y-70903571D01*
X79892857Y-73453571D02*
X79892857Y-71953571D01*
X79321429Y-71953571D01*
X79178571Y-72025000D01*
X79107143Y-72096429D01*
X79035714Y-72239286D01*
X79035714Y-72453571D01*
X79107143Y-72596429D01*
X79178571Y-72667857D01*
X79321429Y-72739286D01*
X79892857Y-72739286D01*
X79821428Y-75217857D02*
X79321428Y-75217857D01*
X79107142Y-76003571D02*
X79821428Y-76003571D01*
X79821428Y-74503571D01*
X79107142Y-74503571D01*
D12*
X77000000Y-81000000D02*
X77000000Y-71000000D01*
X82000000Y-81000000D02*
X77000000Y-81000000D01*
X82000000Y-62000000D02*
X82000000Y-81000000D01*
X77000000Y-62000000D02*
X82000000Y-62000000D01*
X77000000Y-71000000D02*
X77000000Y-62000000D01*
D11*
X90464285Y-79678571D02*
X90464285Y-80678571D01*
X90821428Y-79107143D02*
X91178571Y-80178571D01*
X90249999Y-80178571D01*
X89392857Y-79178571D02*
X89250000Y-79178571D01*
X89107143Y-79250000D01*
X89035714Y-79321429D01*
X88964285Y-79464286D01*
X88892857Y-79750000D01*
X88892857Y-80107143D01*
X88964285Y-80392857D01*
X89035714Y-80535714D01*
X89107143Y-80607143D01*
X89250000Y-80678571D01*
X89392857Y-80678571D01*
X89535714Y-80607143D01*
X89607143Y-80535714D01*
X89678571Y-80392857D01*
X89750000Y-80107143D01*
X89750000Y-79750000D01*
X89678571Y-79464286D01*
X89607143Y-79321429D01*
X89535714Y-79250000D01*
X89392857Y-79178571D01*
X88392857Y-80678571D02*
X87607143Y-79678571D01*
X88392857Y-79678571D02*
X87607143Y-80678571D01*
X87107143Y-79321429D02*
X87035714Y-79250000D01*
X86892857Y-79178571D01*
X86535714Y-79178571D01*
X86392857Y-79250000D01*
X86321428Y-79321429D01*
X86250000Y-79464286D01*
X86250000Y-79607143D01*
X86321428Y-79821429D01*
X87178571Y-80678571D01*
X86250000Y-80678571D01*
X84892857Y-79178571D02*
X85607143Y-79178571D01*
X85678572Y-79892857D01*
X85607143Y-79821429D01*
X85464286Y-79750000D01*
X85107143Y-79750000D01*
X84964286Y-79821429D01*
X84892857Y-79892857D01*
X84821429Y-80035714D01*
X84821429Y-80392857D01*
X84892857Y-80535714D01*
X84964286Y-80607143D01*
X85107143Y-80678571D01*
X85464286Y-80678571D01*
X85607143Y-80607143D01*
X85678572Y-80535714D01*
D13*
G36*
X115875000Y-83875000D02*
X108301776Y-83875000D01*
X115875000Y-76301776D01*
X115875000Y-83875000D01*
X115875000Y-83875000D01*
G37*
X115875000Y-83875000D02*
X108301776Y-83875000D01*
X115875000Y-76301776D01*
X115875000Y-83875000D01*
M02*
