%TF.GenerationSoftware,KiCad,Pcbnew,4.0.6*%
%TF.CreationDate,2017-08-22T22:22:21+02:00*%
%TF.ProjectId,ChipS,43686970532E6B696361645F70636200,rev?*%
%TF.FileFunction,Copper,L1,Top,Signal*%
%FSLAX46Y46*%
G04 Gerber Fmt 4.6, Leading zero omitted, Abs format (unit mm)*
G04 Created by KiCad (PCBNEW 4.0.6) date 08/22/17 22:22:21*
%MOMM*%
%LPD*%
G01*
G04 APERTURE LIST*
%ADD10C,0.100000*%
%ADD11R,1.500000X0.800000*%
%ADD12R,3.100000X2.200000*%
%ADD13R,1.600000X1.600000*%
%ADD14O,1.600000X1.600000*%
%ADD15R,1.700000X2.000000*%
%ADD16C,0.800000*%
%ADD17C,0.500000*%
%ADD18C,0.250000*%
G04 APERTURE END LIST*
D10*
D11*
X104685900Y-73500600D03*
X104685900Y-72250600D03*
X104685900Y-71000600D03*
X104685900Y-69750600D03*
X104685900Y-68500600D03*
X104685900Y-67250600D03*
X104685900Y-66000600D03*
D12*
X107435900Y-76000600D03*
X107435900Y-63500600D03*
D13*
X89716000Y-72392200D03*
D14*
X97336000Y-64772200D03*
X92256000Y-72392200D03*
X94796000Y-64772200D03*
X94796000Y-72392200D03*
X92256000Y-64772200D03*
X97336000Y-72392200D03*
X89716000Y-64772200D03*
D15*
X85100000Y-66500000D03*
X85100000Y-70500000D03*
X80500000Y-66500000D03*
X80500000Y-70500000D03*
D16*
X94796000Y-72392200D02*
X94796000Y-70542002D01*
X94796000Y-70542002D02*
X95587402Y-69750600D01*
X95587402Y-69750600D02*
X104685900Y-69750600D01*
X97336000Y-72392200D02*
X97336000Y-71579400D01*
X97336000Y-71579400D02*
X97914800Y-71000600D01*
X97914800Y-71000600D02*
X104685900Y-71000600D01*
X80500000Y-66500000D02*
X85100000Y-66500000D01*
X97336000Y-64772200D02*
X97336000Y-65369100D01*
D17*
X97336000Y-64772200D02*
X97336000Y-65369100D01*
D16*
X97336000Y-65369100D02*
X97967500Y-66000600D01*
X97967500Y-66000600D02*
X104685900Y-66000600D01*
D17*
X97336000Y-64772200D02*
X97336000Y-65000800D01*
D16*
X94796000Y-64772200D02*
X94796000Y-66296200D01*
X94796000Y-66296200D02*
X95750400Y-67250600D01*
X95750400Y-67250600D02*
X104685900Y-67250600D01*
X104685900Y-68500600D02*
X93736500Y-68500600D01*
X93736500Y-68500600D02*
X92256000Y-67020100D01*
X92256000Y-67020100D02*
X92256000Y-64772200D01*
X85100000Y-70500000D02*
X91583000Y-70500000D01*
X91583000Y-70500000D02*
X92256000Y-71173000D01*
X92256000Y-71173000D02*
X92256000Y-72392200D01*
D18*
G36*
X80625000Y-70375000D02*
X80645000Y-70375000D01*
X80645000Y-70625000D01*
X80625000Y-70625000D01*
X80625000Y-71968750D01*
X80781250Y-72125000D01*
X81275000Y-72125000D01*
X81275000Y-75200000D01*
X81284848Y-75248632D01*
X81312841Y-75289601D01*
X81354568Y-75316451D01*
X81400000Y-75325000D01*
X88900000Y-75325000D01*
X88948632Y-75315152D01*
X88989601Y-75287159D01*
X89016451Y-75245432D01*
X89025000Y-75200000D01*
X89025000Y-73817200D01*
X89434750Y-73817200D01*
X89591000Y-73660950D01*
X89591000Y-72517200D01*
X89571000Y-72517200D01*
X89571000Y-72267200D01*
X89591000Y-72267200D01*
X89591000Y-72247200D01*
X89841000Y-72247200D01*
X89841000Y-72267200D01*
X89861000Y-72267200D01*
X89861000Y-72517200D01*
X89841000Y-72517200D01*
X89841000Y-73660950D01*
X89997250Y-73817200D01*
X90375000Y-73817200D01*
X90375000Y-75200000D01*
X90384848Y-75248632D01*
X90412841Y-75289601D01*
X90454568Y-75316451D01*
X90500000Y-75325000D01*
X100400000Y-75325000D01*
X100448632Y-75315152D01*
X100489601Y-75287159D01*
X100516451Y-75245432D01*
X100525000Y-75200000D01*
X100525000Y-73225000D01*
X103316550Y-73225000D01*
X103467150Y-73375600D01*
X104560900Y-73375600D01*
X104560900Y-73355600D01*
X104810900Y-73355600D01*
X104810900Y-73375600D01*
X104830900Y-73375600D01*
X104830900Y-73625600D01*
X104810900Y-73625600D01*
X104810900Y-73645600D01*
X104560900Y-73645600D01*
X104560900Y-73625600D01*
X103467150Y-73625600D01*
X103310900Y-73781850D01*
X103310900Y-74024920D01*
X103406050Y-74254634D01*
X103426416Y-74275000D01*
X101800000Y-74275000D01*
X101751368Y-74284848D01*
X101710399Y-74312841D01*
X101683549Y-74354568D01*
X101675000Y-74400000D01*
X101675000Y-76475000D01*
X79725000Y-76475000D01*
X79725000Y-72125000D01*
X80218750Y-72125000D01*
X80375000Y-71968750D01*
X80375000Y-70625000D01*
X80355000Y-70625000D01*
X80355000Y-70375000D01*
X80375000Y-70375000D01*
X80375000Y-70355000D01*
X80625000Y-70355000D01*
X80625000Y-70375000D01*
X80625000Y-70375000D01*
G37*
X80625000Y-70375000D02*
X80645000Y-70375000D01*
X80645000Y-70625000D01*
X80625000Y-70625000D01*
X80625000Y-71968750D01*
X80781250Y-72125000D01*
X81275000Y-72125000D01*
X81275000Y-75200000D01*
X81284848Y-75248632D01*
X81312841Y-75289601D01*
X81354568Y-75316451D01*
X81400000Y-75325000D01*
X88900000Y-75325000D01*
X88948632Y-75315152D01*
X88989601Y-75287159D01*
X89016451Y-75245432D01*
X89025000Y-75200000D01*
X89025000Y-73817200D01*
X89434750Y-73817200D01*
X89591000Y-73660950D01*
X89591000Y-72517200D01*
X89571000Y-72517200D01*
X89571000Y-72267200D01*
X89591000Y-72267200D01*
X89591000Y-72247200D01*
X89841000Y-72247200D01*
X89841000Y-72267200D01*
X89861000Y-72267200D01*
X89861000Y-72517200D01*
X89841000Y-72517200D01*
X89841000Y-73660950D01*
X89997250Y-73817200D01*
X90375000Y-73817200D01*
X90375000Y-75200000D01*
X90384848Y-75248632D01*
X90412841Y-75289601D01*
X90454568Y-75316451D01*
X90500000Y-75325000D01*
X100400000Y-75325000D01*
X100448632Y-75315152D01*
X100489601Y-75287159D01*
X100516451Y-75245432D01*
X100525000Y-75200000D01*
X100525000Y-73225000D01*
X103316550Y-73225000D01*
X103467150Y-73375600D01*
X104560900Y-73375600D01*
X104560900Y-73355600D01*
X104810900Y-73355600D01*
X104810900Y-73375600D01*
X104830900Y-73375600D01*
X104830900Y-73625600D01*
X104810900Y-73625600D01*
X104810900Y-73645600D01*
X104560900Y-73645600D01*
X104560900Y-73625600D01*
X103467150Y-73625600D01*
X103310900Y-73781850D01*
X103310900Y-74024920D01*
X103406050Y-74254634D01*
X103426416Y-74275000D01*
X101800000Y-74275000D01*
X101751368Y-74284848D01*
X101710399Y-74312841D01*
X101683549Y-74354568D01*
X101675000Y-74400000D01*
X101675000Y-76475000D01*
X79725000Y-76475000D01*
X79725000Y-72125000D01*
X80218750Y-72125000D01*
X80375000Y-71968750D01*
X80375000Y-70625000D01*
X80355000Y-70625000D01*
X80355000Y-70375000D01*
X80375000Y-70375000D01*
X80375000Y-70355000D01*
X80625000Y-70355000D01*
X80625000Y-70375000D01*
G36*
X115300000Y-75710051D02*
X107710050Y-83300000D01*
X76700000Y-83300000D01*
X76700000Y-69500000D01*
X78975000Y-69500000D01*
X78975000Y-76600000D01*
X79017743Y-76827161D01*
X79151995Y-77035794D01*
X79356840Y-77175759D01*
X79600000Y-77225000D01*
X101800000Y-77225000D01*
X102027161Y-77182257D01*
X102235794Y-77048005D01*
X102375759Y-76843160D01*
X102425000Y-76600000D01*
X102425000Y-75025000D01*
X105248656Y-75025000D01*
X105248656Y-77100600D01*
X105292237Y-77332211D01*
X105429119Y-77544932D01*
X105637976Y-77687638D01*
X105885900Y-77737844D01*
X108985900Y-77737844D01*
X109217511Y-77694263D01*
X109430232Y-77557381D01*
X109572938Y-77348524D01*
X109623144Y-77100600D01*
X109623144Y-74900600D01*
X109579563Y-74668989D01*
X109442681Y-74456268D01*
X109233824Y-74313562D01*
X108985900Y-74263356D01*
X106625000Y-74263356D01*
X106625000Y-73100000D01*
X106582257Y-72872839D01*
X106448005Y-72664206D01*
X106243160Y-72524241D01*
X106005078Y-72476028D01*
X105904650Y-72375600D01*
X104810900Y-72375600D01*
X104810900Y-72395600D01*
X104560900Y-72395600D01*
X104560900Y-72375600D01*
X103467150Y-72375600D01*
X103367750Y-72475000D01*
X100400000Y-72475000D01*
X100172839Y-72517743D01*
X99964206Y-72651995D01*
X99824241Y-72856840D01*
X99775000Y-73100000D01*
X99775000Y-74575000D01*
X91125000Y-74575000D01*
X91125000Y-73331673D01*
X91138764Y-73263703D01*
X91248373Y-73427744D01*
X91710676Y-73736645D01*
X92256000Y-73845117D01*
X92801324Y-73736645D01*
X93263627Y-73427744D01*
X93526000Y-73035075D01*
X93788373Y-73427744D01*
X94250676Y-73736645D01*
X94796000Y-73845117D01*
X95341324Y-73736645D01*
X95803627Y-73427744D01*
X96066000Y-73035075D01*
X96328373Y-73427744D01*
X96790676Y-73736645D01*
X97336000Y-73845117D01*
X97881324Y-73736645D01*
X98343627Y-73427744D01*
X98652528Y-72965441D01*
X98761000Y-72420117D01*
X98761000Y-72364283D01*
X98693632Y-72025600D01*
X103367150Y-72025600D01*
X103467150Y-72125600D01*
X104560900Y-72125600D01*
X104560900Y-72105600D01*
X104810900Y-72105600D01*
X104810900Y-72125600D01*
X105904650Y-72125600D01*
X106060900Y-71969350D01*
X106060900Y-71726280D01*
X106024828Y-71639193D01*
X106073144Y-71400600D01*
X106073144Y-70600600D01*
X106029563Y-70368989D01*
X106029073Y-70368228D01*
X106073144Y-70150600D01*
X106073144Y-69350600D01*
X106029563Y-69118989D01*
X106029073Y-69118228D01*
X106073144Y-68900600D01*
X106073144Y-68100600D01*
X106029563Y-67868989D01*
X106029073Y-67868228D01*
X106073144Y-67650600D01*
X106073144Y-66850600D01*
X106029563Y-66618989D01*
X106029073Y-66618228D01*
X106073144Y-66400600D01*
X106073144Y-65600600D01*
X106029563Y-65368989D01*
X105945174Y-65237844D01*
X108985900Y-65237844D01*
X109217511Y-65194263D01*
X109430232Y-65057381D01*
X109572938Y-64848524D01*
X109623144Y-64600600D01*
X109623144Y-62400600D01*
X109579563Y-62168989D01*
X109442681Y-61956268D01*
X109233824Y-61813562D01*
X108985900Y-61763356D01*
X105885900Y-61763356D01*
X105654289Y-61806937D01*
X105441568Y-61943819D01*
X105298862Y-62152676D01*
X105248656Y-62400600D01*
X105248656Y-64600600D01*
X105292237Y-64832211D01*
X105376626Y-64963356D01*
X103935900Y-64963356D01*
X103870829Y-64975600D01*
X98726094Y-64975600D01*
X98761000Y-64800117D01*
X98761000Y-64744283D01*
X98652528Y-64198959D01*
X98343627Y-63736656D01*
X97881324Y-63427755D01*
X97336000Y-63319283D01*
X96790676Y-63427755D01*
X96328373Y-63736656D01*
X96066000Y-64129325D01*
X95803627Y-63736656D01*
X95341324Y-63427755D01*
X94796000Y-63319283D01*
X94250676Y-63427755D01*
X93788373Y-63736656D01*
X93526000Y-64129325D01*
X93263627Y-63736656D01*
X92801324Y-63427755D01*
X92256000Y-63319283D01*
X91710676Y-63427755D01*
X91248373Y-63736656D01*
X90969619Y-64153841D01*
X90861025Y-63923925D01*
X90449244Y-63550314D01*
X90061521Y-63389724D01*
X89841000Y-63509623D01*
X89841000Y-64647200D01*
X89861000Y-64647200D01*
X89861000Y-64897200D01*
X89841000Y-64897200D01*
X89841000Y-66034777D01*
X90061521Y-66154676D01*
X90449244Y-65994086D01*
X90861025Y-65620475D01*
X90969619Y-65390559D01*
X91231000Y-65781743D01*
X91231000Y-67020100D01*
X91276849Y-67250600D01*
X91309023Y-67412351D01*
X91531216Y-67744884D01*
X93011715Y-69225384D01*
X93210712Y-69358350D01*
X93344249Y-69447577D01*
X93736500Y-69525600D01*
X94362834Y-69525600D01*
X94071216Y-69817218D01*
X93849023Y-70149751D01*
X93771000Y-70542002D01*
X93771000Y-71382657D01*
X93526000Y-71749325D01*
X93281000Y-71382657D01*
X93281000Y-71173000D01*
X93202977Y-70780749D01*
X93087782Y-70608349D01*
X92980785Y-70448216D01*
X92307784Y-69775216D01*
X91975251Y-69553023D01*
X91583000Y-69475000D01*
X86582540Y-69475000D01*
X86543663Y-69268389D01*
X86406781Y-69055668D01*
X86197924Y-68912962D01*
X85950000Y-68862756D01*
X84250000Y-68862756D01*
X84018389Y-68906337D01*
X83805668Y-69043219D01*
X83662962Y-69252076D01*
X83612756Y-69500000D01*
X83612756Y-71500000D01*
X83656337Y-71731611D01*
X83793219Y-71944332D01*
X84002076Y-72087038D01*
X84250000Y-72137244D01*
X85950000Y-72137244D01*
X86181611Y-72093663D01*
X86394332Y-71956781D01*
X86537038Y-71747924D01*
X86582181Y-71525000D01*
X88290188Y-71525000D01*
X88275000Y-71600000D01*
X88275000Y-74575000D01*
X82025000Y-74575000D01*
X82025000Y-69500000D01*
X81982257Y-69272839D01*
X81848005Y-69064206D01*
X81643160Y-68924241D01*
X81602331Y-68915973D01*
X81597924Y-68912962D01*
X81350000Y-68862756D01*
X79650000Y-68862756D01*
X79418389Y-68906337D01*
X79412162Y-68910344D01*
X79372839Y-68917743D01*
X79164206Y-69051995D01*
X79024241Y-69256840D01*
X78975000Y-69500000D01*
X76700000Y-69500000D01*
X76700000Y-65500000D01*
X79012756Y-65500000D01*
X79012756Y-67500000D01*
X79056337Y-67731611D01*
X79193219Y-67944332D01*
X79402076Y-68087038D01*
X79650000Y-68137244D01*
X81350000Y-68137244D01*
X81581611Y-68093663D01*
X81794332Y-67956781D01*
X81937038Y-67747924D01*
X81982181Y-67525000D01*
X83617460Y-67525000D01*
X83656337Y-67731611D01*
X83793219Y-67944332D01*
X84002076Y-68087038D01*
X84250000Y-68137244D01*
X85950000Y-68137244D01*
X86181611Y-68093663D01*
X86394332Y-67956781D01*
X86537038Y-67747924D01*
X86587244Y-67500000D01*
X86587244Y-65500000D01*
X86543663Y-65268389D01*
X86446712Y-65117722D01*
X88333514Y-65117722D01*
X88570975Y-65620475D01*
X88982756Y-65994086D01*
X89370479Y-66154676D01*
X89591000Y-66034777D01*
X89591000Y-64897200D01*
X88452733Y-64897200D01*
X88333514Y-65117722D01*
X86446712Y-65117722D01*
X86406781Y-65055668D01*
X86197924Y-64912962D01*
X85950000Y-64862756D01*
X84250000Y-64862756D01*
X84018389Y-64906337D01*
X83805668Y-65043219D01*
X83662962Y-65252076D01*
X83617819Y-65475000D01*
X81982540Y-65475000D01*
X81943663Y-65268389D01*
X81806781Y-65055668D01*
X81597924Y-64912962D01*
X81350000Y-64862756D01*
X79650000Y-64862756D01*
X79418389Y-64906337D01*
X79205668Y-65043219D01*
X79062962Y-65252076D01*
X79012756Y-65500000D01*
X76700000Y-65500000D01*
X76700000Y-64426678D01*
X88333514Y-64426678D01*
X88452733Y-64647200D01*
X89591000Y-64647200D01*
X89591000Y-63509623D01*
X89370479Y-63389724D01*
X88982756Y-63550314D01*
X88570975Y-63923925D01*
X88333514Y-64426678D01*
X76700000Y-64426678D01*
X76700000Y-59700000D01*
X115300000Y-59700000D01*
X115300000Y-75710051D01*
X115300000Y-75710051D01*
G37*
X115300000Y-75710051D02*
X107710050Y-83300000D01*
X76700000Y-83300000D01*
X76700000Y-69500000D01*
X78975000Y-69500000D01*
X78975000Y-76600000D01*
X79017743Y-76827161D01*
X79151995Y-77035794D01*
X79356840Y-77175759D01*
X79600000Y-77225000D01*
X101800000Y-77225000D01*
X102027161Y-77182257D01*
X102235794Y-77048005D01*
X102375759Y-76843160D01*
X102425000Y-76600000D01*
X102425000Y-75025000D01*
X105248656Y-75025000D01*
X105248656Y-77100600D01*
X105292237Y-77332211D01*
X105429119Y-77544932D01*
X105637976Y-77687638D01*
X105885900Y-77737844D01*
X108985900Y-77737844D01*
X109217511Y-77694263D01*
X109430232Y-77557381D01*
X109572938Y-77348524D01*
X109623144Y-77100600D01*
X109623144Y-74900600D01*
X109579563Y-74668989D01*
X109442681Y-74456268D01*
X109233824Y-74313562D01*
X108985900Y-74263356D01*
X106625000Y-74263356D01*
X106625000Y-73100000D01*
X106582257Y-72872839D01*
X106448005Y-72664206D01*
X106243160Y-72524241D01*
X106005078Y-72476028D01*
X105904650Y-72375600D01*
X104810900Y-72375600D01*
X104810900Y-72395600D01*
X104560900Y-72395600D01*
X104560900Y-72375600D01*
X103467150Y-72375600D01*
X103367750Y-72475000D01*
X100400000Y-72475000D01*
X100172839Y-72517743D01*
X99964206Y-72651995D01*
X99824241Y-72856840D01*
X99775000Y-73100000D01*
X99775000Y-74575000D01*
X91125000Y-74575000D01*
X91125000Y-73331673D01*
X91138764Y-73263703D01*
X91248373Y-73427744D01*
X91710676Y-73736645D01*
X92256000Y-73845117D01*
X92801324Y-73736645D01*
X93263627Y-73427744D01*
X93526000Y-73035075D01*
X93788373Y-73427744D01*
X94250676Y-73736645D01*
X94796000Y-73845117D01*
X95341324Y-73736645D01*
X95803627Y-73427744D01*
X96066000Y-73035075D01*
X96328373Y-73427744D01*
X96790676Y-73736645D01*
X97336000Y-73845117D01*
X97881324Y-73736645D01*
X98343627Y-73427744D01*
X98652528Y-72965441D01*
X98761000Y-72420117D01*
X98761000Y-72364283D01*
X98693632Y-72025600D01*
X103367150Y-72025600D01*
X103467150Y-72125600D01*
X104560900Y-72125600D01*
X104560900Y-72105600D01*
X104810900Y-72105600D01*
X104810900Y-72125600D01*
X105904650Y-72125600D01*
X106060900Y-71969350D01*
X106060900Y-71726280D01*
X106024828Y-71639193D01*
X106073144Y-71400600D01*
X106073144Y-70600600D01*
X106029563Y-70368989D01*
X106029073Y-70368228D01*
X106073144Y-70150600D01*
X106073144Y-69350600D01*
X106029563Y-69118989D01*
X106029073Y-69118228D01*
X106073144Y-68900600D01*
X106073144Y-68100600D01*
X106029563Y-67868989D01*
X106029073Y-67868228D01*
X106073144Y-67650600D01*
X106073144Y-66850600D01*
X106029563Y-66618989D01*
X106029073Y-66618228D01*
X106073144Y-66400600D01*
X106073144Y-65600600D01*
X106029563Y-65368989D01*
X105945174Y-65237844D01*
X108985900Y-65237844D01*
X109217511Y-65194263D01*
X109430232Y-65057381D01*
X109572938Y-64848524D01*
X109623144Y-64600600D01*
X109623144Y-62400600D01*
X109579563Y-62168989D01*
X109442681Y-61956268D01*
X109233824Y-61813562D01*
X108985900Y-61763356D01*
X105885900Y-61763356D01*
X105654289Y-61806937D01*
X105441568Y-61943819D01*
X105298862Y-62152676D01*
X105248656Y-62400600D01*
X105248656Y-64600600D01*
X105292237Y-64832211D01*
X105376626Y-64963356D01*
X103935900Y-64963356D01*
X103870829Y-64975600D01*
X98726094Y-64975600D01*
X98761000Y-64800117D01*
X98761000Y-64744283D01*
X98652528Y-64198959D01*
X98343627Y-63736656D01*
X97881324Y-63427755D01*
X97336000Y-63319283D01*
X96790676Y-63427755D01*
X96328373Y-63736656D01*
X96066000Y-64129325D01*
X95803627Y-63736656D01*
X95341324Y-63427755D01*
X94796000Y-63319283D01*
X94250676Y-63427755D01*
X93788373Y-63736656D01*
X93526000Y-64129325D01*
X93263627Y-63736656D01*
X92801324Y-63427755D01*
X92256000Y-63319283D01*
X91710676Y-63427755D01*
X91248373Y-63736656D01*
X90969619Y-64153841D01*
X90861025Y-63923925D01*
X90449244Y-63550314D01*
X90061521Y-63389724D01*
X89841000Y-63509623D01*
X89841000Y-64647200D01*
X89861000Y-64647200D01*
X89861000Y-64897200D01*
X89841000Y-64897200D01*
X89841000Y-66034777D01*
X90061521Y-66154676D01*
X90449244Y-65994086D01*
X90861025Y-65620475D01*
X90969619Y-65390559D01*
X91231000Y-65781743D01*
X91231000Y-67020100D01*
X91276849Y-67250600D01*
X91309023Y-67412351D01*
X91531216Y-67744884D01*
X93011715Y-69225384D01*
X93210712Y-69358350D01*
X93344249Y-69447577D01*
X93736500Y-69525600D01*
X94362834Y-69525600D01*
X94071216Y-69817218D01*
X93849023Y-70149751D01*
X93771000Y-70542002D01*
X93771000Y-71382657D01*
X93526000Y-71749325D01*
X93281000Y-71382657D01*
X93281000Y-71173000D01*
X93202977Y-70780749D01*
X93087782Y-70608349D01*
X92980785Y-70448216D01*
X92307784Y-69775216D01*
X91975251Y-69553023D01*
X91583000Y-69475000D01*
X86582540Y-69475000D01*
X86543663Y-69268389D01*
X86406781Y-69055668D01*
X86197924Y-68912962D01*
X85950000Y-68862756D01*
X84250000Y-68862756D01*
X84018389Y-68906337D01*
X83805668Y-69043219D01*
X83662962Y-69252076D01*
X83612756Y-69500000D01*
X83612756Y-71500000D01*
X83656337Y-71731611D01*
X83793219Y-71944332D01*
X84002076Y-72087038D01*
X84250000Y-72137244D01*
X85950000Y-72137244D01*
X86181611Y-72093663D01*
X86394332Y-71956781D01*
X86537038Y-71747924D01*
X86582181Y-71525000D01*
X88290188Y-71525000D01*
X88275000Y-71600000D01*
X88275000Y-74575000D01*
X82025000Y-74575000D01*
X82025000Y-69500000D01*
X81982257Y-69272839D01*
X81848005Y-69064206D01*
X81643160Y-68924241D01*
X81602331Y-68915973D01*
X81597924Y-68912962D01*
X81350000Y-68862756D01*
X79650000Y-68862756D01*
X79418389Y-68906337D01*
X79412162Y-68910344D01*
X79372839Y-68917743D01*
X79164206Y-69051995D01*
X79024241Y-69256840D01*
X78975000Y-69500000D01*
X76700000Y-69500000D01*
X76700000Y-65500000D01*
X79012756Y-65500000D01*
X79012756Y-67500000D01*
X79056337Y-67731611D01*
X79193219Y-67944332D01*
X79402076Y-68087038D01*
X79650000Y-68137244D01*
X81350000Y-68137244D01*
X81581611Y-68093663D01*
X81794332Y-67956781D01*
X81937038Y-67747924D01*
X81982181Y-67525000D01*
X83617460Y-67525000D01*
X83656337Y-67731611D01*
X83793219Y-67944332D01*
X84002076Y-68087038D01*
X84250000Y-68137244D01*
X85950000Y-68137244D01*
X86181611Y-68093663D01*
X86394332Y-67956781D01*
X86537038Y-67747924D01*
X86587244Y-67500000D01*
X86587244Y-65500000D01*
X86543663Y-65268389D01*
X86446712Y-65117722D01*
X88333514Y-65117722D01*
X88570975Y-65620475D01*
X88982756Y-65994086D01*
X89370479Y-66154676D01*
X89591000Y-66034777D01*
X89591000Y-64897200D01*
X88452733Y-64897200D01*
X88333514Y-65117722D01*
X86446712Y-65117722D01*
X86406781Y-65055668D01*
X86197924Y-64912962D01*
X85950000Y-64862756D01*
X84250000Y-64862756D01*
X84018389Y-64906337D01*
X83805668Y-65043219D01*
X83662962Y-65252076D01*
X83617819Y-65475000D01*
X81982540Y-65475000D01*
X81943663Y-65268389D01*
X81806781Y-65055668D01*
X81597924Y-64912962D01*
X81350000Y-64862756D01*
X79650000Y-64862756D01*
X79418389Y-64906337D01*
X79205668Y-65043219D01*
X79062962Y-65252076D01*
X79012756Y-65500000D01*
X76700000Y-65500000D01*
X76700000Y-64426678D01*
X88333514Y-64426678D01*
X88452733Y-64647200D01*
X89591000Y-64647200D01*
X89591000Y-63509623D01*
X89370479Y-63389724D01*
X88982756Y-63550314D01*
X88570975Y-63923925D01*
X88333514Y-64426678D01*
X76700000Y-64426678D01*
X76700000Y-59700000D01*
X115300000Y-59700000D01*
X115300000Y-75710051D01*
M02*
