  0
SECTION
  2
HEADER
  9
$ANGBASE
  50
0.0
  9
$ANGDIR
  70
  1
  9
$MEASUREMENT
  70
0
  0
ENDSEC
  0
SECTION
  2
TABLES
  0
TABLE
  2
LTYPE
  70
1
  0
LTYPE
  2
CONTINUOUS
  70
0
  3
Solid line
  72
65
  73
0
  40
0.0
  0
ENDTAB
  0
TABLE
  2
STYLE
  70
4
  0
STYLE
  2
KICAD
  70
0
  40
0
  41
1
  42
1
  50
0
  71
0
  3
isocp.shx
  0
STYLE
  2
KICADB
  70
0
  40
0
  41
1
  42
1
  50
0
  71
0
  3
isocp.shx
  0
STYLE
  2
KICADI
  70
0
  40
0
  41
1
  42
1
  50
15
  71
0
  3
isocp.shx
  0
STYLE
  2
KICADBI
  70
0
  40
0
  41
1
  42
1
  50
15
  71
0
  3
isocp.shx
  0
ENDTAB
  0
TABLE
  2
LAYER
  70
30
  0
LAYER
  2
BLACK
  70
0
  62
7
  6
CONTINUOUS
  0
LAYER
  2
GRAY1
  70
0
  62
251
  6
CONTINUOUS
  0
LAYER
  2
GRAY2
  70
0
  62
8
  6
CONTINUOUS
  0
LAYER
  2
GRAY3
  70
0
  62
9
  6
CONTINUOUS
  0
LAYER
  2
WHITE
  70
0
  62
7
  6
CONTINUOUS
  0
LAYER
  2
LYELLOW
  70
0
  62
51
  6
CONTINUOUS
  0
LAYER
  2
BLUE1
  70
0
  62
178
  6
CONTINUOUS
  0
LAYER
  2
GREEN1
  70
0
  62
98
  6
CONTINUOUS
  0
LAYER
  2
CYAN1
  70
0
  62
138
  6
CONTINUOUS
  0
LAYER
  2
RED1
  70
0
  62
18
  6
CONTINUOUS
  0
LAYER
  2
MAGENTA1
  70
0
  62
228
  6
CONTINUOUS
  0
LAYER
  2
BROWN1
  70
0
  62
58
  6
CONTINUOUS
  0
LAYER
  2
BLUE2
  70
0
  62
5
  6
CONTINUOUS
  0
LAYER
  2
GREEN2
  70
0
  62
3
  6
CONTINUOUS
  0
LAYER
  2
CYAN2
  70
0
  62
4
  6
CONTINUOUS
  0
LAYER
  2
RED2
  70
0
  62
1
  6
CONTINUOUS
  0
LAYER
  2
MAGENTA2
  70
0
  62
6
  6
CONTINUOUS
  0
LAYER
  2
BROWN2
  70
0
  62
54
  6
CONTINUOUS
  0
LAYER
  2
BLUE3
  70
0
  62
171
  6
CONTINUOUS
  0
LAYER
  2
GREEN3
  70
0
  62
91
  6
CONTINUOUS
  0
LAYER
  2
CYAN3
  70
0
  62
131
  6
CONTINUOUS
  0
LAYER
  2
RED3
  70
0
  62
11
  6
CONTINUOUS
  0
LAYER
  2
MAGENTA3
  70
0
  62
221
  6
CONTINUOUS
  0
LAYER
  2
YELLOW3
  70
0
  62
2
  6
CONTINUOUS
  0
LAYER
  2
BLUE4
  70
0
  62
5
  6
CONTINUOUS
  0
LAYER
  2
GREEN4
  70
0
  62
3
  6
CONTINUOUS
  0
LAYER
  2
CYAN4
  70
0
  62
4
  6
CONTINUOUS
  0
LAYER
  2
RED4
  70
0
  62
1
  6
CONTINUOUS
  0
LAYER
  2
MAGENTA4
  70
0
  62
6
  6
CONTINUOUS
  0
LAYER
  2
YELLOW4
  70
0
  62
2
  6
CONTINUOUS
  0
ENDTAB
  0
ENDSEC
  0
SECTION
  2
ENTITIES
0
LINE
8
Black
10
76
20
-59.075
11
116
21
-59.075
0
LINE
8
Black
10
76
20
-58.925
11
116
21
-58.925
0
ARC
8
Black
10
116
20
-59
40
0.075
50
270
51
450
0
ARC
8
Black
10
76
20
-59
40
0.075
50
90
51
270
0
LINE
8
Black
10
76.075
20
-84
11
76.075
21
-59
0
LINE
8
Black
10
75.925
20
-84
11
75.925
21
-59
0
ARC
8
Black
10
76
20
-59
40
0.075
50
360
51
540
0
ARC
8
Black
10
76
20
-84
40
0.075
50
180
51
360
0
LINE
8
Black
10
76
20
-84.075
11
116
21
-84.075
0
LINE
8
Black
10
76
20
-83.925
11
116
21
-83.925
0
ARC
8
Black
10
116
20
-84
40
0.075
50
270
51
450
0
ARC
8
Black
10
76
20
-84
40
0.075
50
90
51
270
0
LINE
8
Black
10
116.075
20
-84
11
116.075
21
-59
0
LINE
8
Black
10
115.925
20
-84
11
115.925
21
-59
0
ARC
8
Black
10
116
20
-59
40
0.075
50
360
51
540
0
ARC
8
Black
10
116
20
-84
40
0.075
50
180
51
360
0
LINE
8
Black
10
89.316
20
-64.3722
11
90.116
21
-65.1722
0
LINE
8
Black
10
90.116
20
-64.3722
11
89.316
21
-65.1722
0
LINE
8
Black
10
89.316
20
-71.9922
11
90.116
21
-72.7922
0
LINE
8
Black
10
90.116
20
-71.9922
11
89.316
21
-72.7922
0
LINE
8
Black
10
91.856
20
-64.3722
11
92.656
21
-65.1722
0
LINE
8
Black
10
92.656
20
-64.3722
11
91.856
21
-65.1722
0
LINE
8
Black
10
91.856
20
-71.9922
11
92.656
21
-72.7922
0
LINE
8
Black
10
92.656
20
-71.9922
11
91.856
21
-72.7922
0
LINE
8
Black
10
94.396
20
-64.3722
11
95.196
21
-65.1722
0
LINE
8
Black
10
95.196
20
-64.3722
11
94.396
21
-65.1722
0
LINE
8
Black
10
94.396
20
-71.9922
11
95.196
21
-72.7922
0
LINE
8
Black
10
95.196
20
-71.9922
11
94.396
21
-72.7922
0
LINE
8
Black
10
96.936
20
-64.3722
11
97.736
21
-65.1722
0
LINE
8
Black
10
97.736
20
-64.3722
11
96.936
21
-65.1722
0
LINE
8
Black
10
96.936
20
-71.9922
11
97.736
21
-72.7922
0
LINE
8
Black
10
97.736
20
-71.9922
11
96.936
21
-72.7922
0
LINE
8
Black
10
103.1
20
-79.6
11
103.9
21
-80.4
0
LINE
8
Black
10
103.9
20
-79.6
11
103.1
21
-80.4
0
LINE
8
Black
10
78.6393
20
-88.7321
11
78.6393
21
-85.7321
0
LINE
8
Black
10
78.6393
20
-85.7321
11
79.3536
21
-85.7321
0
LINE
8
Black
10
79.3536
20
-85.7321
11
79.7821
21
-85.875
0
LINE
8
Black
10
79.7821
20
-85.875
11
80.0679
21
-86.1607
0
LINE
8
Black
10
80.0679
20
-86.1607
11
80.2107
21
-86.4464
0
LINE
8
Black
10
80.2107
20
-86.4464
11
80.3536
21
-87.0179
0
LINE
8
Black
10
80.3536
20
-87.0179
11
80.3536
21
-87.4464
0
LINE
8
Black
10
80.3536
20
-87.4464
11
80.2107
21
-88.0179
0
LINE
8
Black
10
80.2107
20
-88.0179
11
80.0679
21
-88.3036
0
LINE
8
Black
10
80.0679
20
-88.3036
11
79.7821
21
-88.5893
0
LINE
8
Black
10
79.7821
20
-88.5893
11
79.3536
21
-88.7321
0
LINE
8
Black
10
79.3536
20
-88.7321
11
78.6393
21
-88.7321
0
LINE
8
Black
10
81.6393
20
-88.7321
11
81.6393
21
-86.7321
0
LINE
8
Black
10
81.6393
20
-87.3036
11
81.7821
21
-87.0179
0
LINE
8
Black
10
81.7821
20
-87.0179
11
81.925
21
-86.875
0
LINE
8
Black
10
81.925
20
-86.875
11
82.2107
21
-86.7321
0
LINE
8
Black
10
82.2107
20
-86.7321
11
82.4964
21
-86.7321
0
LINE
8
Black
10
83.4964
20
-88.7321
11
83.4964
21
-86.7321
0
LINE
8
Black
10
83.4964
20
-85.7321
11
83.3536
21
-85.875
0
LINE
8
Black
10
83.3536
20
-85.875
11
83.4964
21
-86.0179
0
LINE
8
Black
10
83.4964
20
-86.0179
11
83.6393
21
-85.875
0
LINE
8
Black
10
83.6393
20
-85.875
11
83.4964
21
-85.7321
0
LINE
8
Black
10
83.4964
20
-85.7321
11
83.4964
21
-86.0179
0
LINE
8
Black
10
85.3536
20
-88.7321
11
85.0679
21
-88.5893
0
LINE
8
Black
10
85.0679
20
-88.5893
11
84.925
21
-88.3036
0
LINE
8
Black
10
84.925
20
-88.3036
11
84.925
21
-85.7321
0
LINE
8
Black
10
86.925
20
-88.7321
11
86.6393
21
-88.5893
0
LINE
8
Black
10
86.6393
20
-88.5893
11
86.4964
21
-88.3036
0
LINE
8
Black
10
86.4964
20
-88.3036
11
86.4964
21
-85.7321
0
LINE
8
Black
10
90.3536
20
-88.7321
11
90.3536
21
-85.7321
0
LINE
8
Black
10
90.3536
20
-85.7321
11
91.3536
21
-87.875
0
LINE
8
Black
10
91.3536
20
-87.875
11
92.3536
21
-85.7321
0
LINE
8
Black
10
92.3536
20
-85.7321
11
92.3536
21
-88.7321
0
LINE
8
Black
10
95.0679
20
-88.7321
11
95.0679
21
-87.1607
0
LINE
8
Black
10
95.0679
20
-87.1607
11
94.925
21
-86.875
0
LINE
8
Black
10
94.925
20
-86.875
11
94.6393
21
-86.7321
0
LINE
8
Black
10
94.6393
20
-86.7321
11
94.0679
21
-86.7321
0
LINE
8
Black
10
94.0679
20
-86.7321
11
93.7821
21
-86.875
0
LINE
8
Black
10
95.0679
20
-88.5893
11
94.7821
21
-88.7321
0
LINE
8
Black
10
94.7821
20
-88.7321
11
94.0679
21
-88.7321
0
LINE
8
Black
10
94.0679
20
-88.7321
11
93.7821
21
-88.5893
0
LINE
8
Black
10
93.7821
20
-88.5893
11
93.6393
21
-88.3036
0
LINE
8
Black
10
93.6393
20
-88.3036
11
93.6393
21
-88.0179
0
LINE
8
Black
10
93.6393
20
-88.0179
11
93.7821
21
-87.7321
0
LINE
8
Black
10
93.7821
20
-87.7321
11
94.0679
21
-87.5893
0
LINE
8
Black
10
94.0679
20
-87.5893
11
94.7821
21
-87.5893
0
LINE
8
Black
10
94.7821
20
-87.5893
11
95.0679
21
-87.4464
0
LINE
8
Black
10
96.4964
20
-86.7321
11
96.4964
21
-89.7321
0
LINE
8
Black
10
96.4964
20
-86.875
11
96.7821
21
-86.7321
0
LINE
8
Black
10
96.7821
20
-86.7321
11
97.3536
21
-86.7321
0
LINE
8
Black
10
97.3536
20
-86.7321
11
97.6393
21
-86.875
0
LINE
8
Black
10
97.6393
20
-86.875
11
97.7821
21
-87.0179
0
LINE
8
Black
10
97.7821
20
-87.0179
11
97.925
21
-87.3036
0
LINE
8
Black
10
97.925
20
-87.3036
11
97.925
21
-88.1607
0
LINE
8
Black
10
97.925
20
-88.1607
11
97.7821
21
-88.4464
0
LINE
8
Black
10
97.7821
20
-88.4464
11
97.6393
21
-88.5893
0
LINE
8
Black
10
97.6393
20
-88.5893
11
97.3536
21
-88.7321
0
LINE
8
Black
10
97.3536
20
-88.7321
11
96.7821
21
-88.7321
0
LINE
8
Black
10
96.7821
20
-88.7321
11
96.4964
21
-88.5893
0
LINE
8
Black
10
99.2107
20
-88.4464
11
99.3536
21
-88.5893
0
LINE
8
Black
10
99.3536
20
-88.5893
11
99.2107
21
-88.7321
0
LINE
8
Black
10
99.2107
20
-88.7321
11
99.0679
21
-88.5893
0
LINE
8
Black
10
99.0679
20
-88.5893
11
99.2107
21
-88.4464
0
LINE
8
Black
10
99.2107
20
-88.4464
11
99.2107
21
-88.7321
0
LINE
8
Black
10
99.2107
20
-86.875
11
99.3536
21
-87.0179
0
LINE
8
Black
10
99.3536
20
-87.0179
11
99.2107
21
-87.1607
0
LINE
8
Black
10
99.2107
20
-87.1607
11
99.0679
21
-87.0179
0
LINE
8
Black
10
99.0679
20
-87.0179
11
99.2107
21
-86.875
0
LINE
8
Black
10
99.2107
20
-86.875
11
99.2107
21
-87.1607
0
LINE
8
Black
10
75.125
20
-93.275
11
75.925
21
-94.075
0
LINE
8
Black
10
75.925
20
-93.275
11
75.125
21
-94.075
0
LINE
8
Black
10
79.2107
20
-92.0321
11
79.4964
21
-92.0321
0
LINE
8
Black
10
79.4964
20
-92.0321
11
79.7821
21
-92.175
0
LINE
8
Black
10
79.7821
20
-92.175
11
79.925
21
-92.3179
0
LINE
8
Black
10
79.925
20
-92.3179
11
80.0679
21
-92.6036
0
LINE
8
Black
10
80.0679
20
-92.6036
11
80.2107
21
-93.175
0
LINE
8
Black
10
80.2107
20
-93.175
11
80.2107
21
-93.8893
0
LINE
8
Black
10
80.2107
20
-93.8893
11
80.0679
21
-94.4607
0
LINE
8
Black
10
80.0679
20
-94.4607
11
79.925
21
-94.7464
0
LINE
8
Black
10
79.925
20
-94.7464
11
79.7821
21
-94.8893
0
LINE
8
Black
10
79.7821
20
-94.8893
11
79.4964
21
-95.0321
0
LINE
8
Black
10
79.4964
20
-95.0321
11
79.2107
21
-95.0321
0
LINE
8
Black
10
79.2107
20
-95.0321
11
78.925
21
-94.8893
0
LINE
8
Black
10
78.925
20
-94.8893
11
78.7821
21
-94.7464
0
LINE
8
Black
10
78.7821
20
-94.7464
11
78.6393
21
-94.4607
0
LINE
8
Black
10
78.6393
20
-94.4607
11
78.4964
21
-93.8893
0
LINE
8
Black
10
78.4964
20
-93.8893
11
78.4964
21
-93.175
0
LINE
8
Black
10
78.4964
20
-93.175
11
78.6393
21
-92.6036
0
LINE
8
Black
10
78.6393
20
-92.6036
11
78.7821
21
-92.3179
0
LINE
8
Black
10
78.7821
20
-92.3179
11
78.925
21
-92.175
0
LINE
8
Black
10
78.925
20
-92.175
11
79.2107
21
-92.0321
0
LINE
8
Black
10
81.4964
20
-94.7464
11
81.6393
21
-94.8893
0
LINE
8
Black
10
81.6393
20
-94.8893
11
81.4964
21
-95.0321
0
LINE
8
Black
10
81.4964
20
-95.0321
11
81.3536
21
-94.8893
0
LINE
8
Black
10
81.3536
20
-94.8893
11
81.4964
21
-94.7464
0
LINE
8
Black
10
81.4964
20
-94.7464
11
81.4964
21
-95.0321
0
LINE
8
Black
10
83.3536
20
-93.3179
11
83.0679
21
-93.175
0
LINE
8
Black
10
83.0679
20
-93.175
11
82.925
21
-93.0321
0
LINE
8
Black
10
82.925
20
-93.0321
11
82.7821
21
-92.7464
0
LINE
8
Black
10
82.7821
20
-92.7464
11
82.7821
21
-92.6036
0
LINE
8
Black
10
82.7821
20
-92.6036
11
82.925
21
-92.3179
0
LINE
8
Black
10
82.925
20
-92.3179
11
83.0679
21
-92.175
0
LINE
8
Black
10
83.0679
20
-92.175
11
83.3536
21
-92.0321
0
LINE
8
Black
10
83.3536
20
-92.0321
11
83.925
21
-92.0321
0
LINE
8
Black
10
83.925
20
-92.0321
11
84.2107
21
-92.175
0
LINE
8
Black
10
84.2107
20
-92.175
11
84.3536
21
-92.3179
0
LINE
8
Black
10
84.3536
20
-92.3179
11
84.4964
21
-92.6036
0
LINE
8
Black
10
84.4964
20
-92.6036
11
84.4964
21
-92.7464
0
LINE
8
Black
10
84.4964
20
-92.7464
11
84.3536
21
-93.0321
0
LINE
8
Black
10
84.3536
20
-93.0321
11
84.2107
21
-93.175
0
LINE
8
Black
10
84.2107
20
-93.175
11
83.925
21
-93.3179
0
LINE
8
Black
10
83.925
20
-93.3179
11
83.3536
21
-93.3179
0
LINE
8
Black
10
83.3536
20
-93.3179
11
83.0679
21
-93.4607
0
LINE
8
Black
10
83.0679
20
-93.4607
11
82.925
21
-93.6036
0
LINE
8
Black
10
82.925
20
-93.6036
11
82.7821
21
-93.8893
0
LINE
8
Black
10
82.7821
20
-93.8893
11
82.7821
21
-94.4607
0
LINE
8
Black
10
82.7821
20
-94.4607
11
82.925
21
-94.7464
0
LINE
8
Black
10
82.925
20
-94.7464
11
83.0679
21
-94.8893
0
LINE
8
Black
10
83.0679
20
-94.8893
11
83.3536
21
-95.0321
0
LINE
8
Black
10
83.3536
20
-95.0321
11
83.925
21
-95.0321
0
LINE
8
Black
10
83.925
20
-95.0321
11
84.2107
21
-94.8893
0
LINE
8
Black
10
84.2107
20
-94.8893
11
84.3536
21
-94.7464
0
LINE
8
Black
10
84.3536
20
-94.7464
11
84.4964
21
-94.4607
0
LINE
8
Black
10
84.4964
20
-94.4607
11
84.4964
21
-93.8893
0
LINE
8
Black
10
84.4964
20
-93.8893
11
84.3536
21
-93.6036
0
LINE
8
Black
10
84.3536
20
-93.6036
11
84.2107
21
-93.4607
0
LINE
8
Black
10
84.2107
20
-93.4607
11
83.925
21
-93.3179
0
LINE
8
Black
10
86.3536
20
-92.0321
11
86.6393
21
-92.0321
0
LINE
8
Black
10
86.6393
20
-92.0321
11
86.925
21
-92.175
0
LINE
8
Black
10
86.925
20
-92.175
11
87.0679
21
-92.3179
0
LINE
8
Black
10
87.0679
20
-92.3179
11
87.2107
21
-92.6036
0
LINE
8
Black
10
87.2107
20
-92.6036
11
87.3536
21
-93.175
0
LINE
8
Black
10
87.3536
20
-93.175
11
87.3536
21
-93.8893
0
LINE
8
Black
10
87.3536
20
-93.8893
11
87.2107
21
-94.4607
0
LINE
8
Black
10
87.2107
20
-94.4607
11
87.0679
21
-94.7464
0
LINE
8
Black
10
87.0679
20
-94.7464
11
86.925
21
-94.8893
0
LINE
8
Black
10
86.925
20
-94.8893
11
86.6393
21
-95.0321
0
LINE
8
Black
10
86.6393
20
-95.0321
11
86.3536
21
-95.0321
0
LINE
8
Black
10
86.3536
20
-95.0321
11
86.0679
21
-94.8893
0
LINE
8
Black
10
86.0679
20
-94.8893
11
85.925
21
-94.7464
0
LINE
8
Black
10
85.925
20
-94.7464
11
85.7821
21
-94.4607
0
LINE
8
Black
10
85.7821
20
-94.4607
11
85.6393
21
-93.8893
0
LINE
8
Black
10
85.6393
20
-93.8893
11
85.6393
21
-93.175
0
LINE
8
Black
10
85.6393
20
-93.175
11
85.7821
21
-92.6036
0
LINE
8
Black
10
85.7821
20
-92.6036
11
85.925
21
-92.3179
0
LINE
8
Black
10
85.925
20
-92.3179
11
86.0679
21
-92.175
0
LINE
8
Black
10
86.0679
20
-92.175
11
86.3536
21
-92.0321
0
LINE
8
Black
10
88.6393
20
-95.0321
11
88.6393
21
-93.0321
0
LINE
8
Black
10
88.6393
20
-93.3179
11
88.7821
21
-93.175
0
LINE
8
Black
10
88.7821
20
-93.175
11
89.0679
21
-93.0321
0
LINE
8
Black
10
89.0679
20
-93.0321
11
89.4964
21
-93.0321
0
LINE
8
Black
10
89.4964
20
-93.0321
11
89.7821
21
-93.175
0
LINE
8
Black
10
89.7821
20
-93.175
11
89.925
21
-93.4607
0
LINE
8
Black
10
89.925
20
-93.4607
11
89.925
21
-95.0321
0
LINE
8
Black
10
89.925
20
-93.4607
11
90.0679
21
-93.175
0
LINE
8
Black
10
90.0679
20
-93.175
11
90.3536
21
-93.0321
0
LINE
8
Black
10
90.3536
20
-93.0321
11
90.7821
21
-93.0321
0
LINE
8
Black
10
90.7821
20
-93.0321
11
91.0679
21
-93.175
0
LINE
8
Black
10
91.0679
20
-93.175
11
91.2107
21
-93.4607
0
LINE
8
Black
10
91.2107
20
-93.4607
11
91.2107
21
-95.0321
0
LINE
8
Black
10
92.6393
20
-95.0321
11
92.6393
21
-93.0321
0
LINE
8
Black
10
92.6393
20
-93.3179
11
92.7821
21
-93.175
0
LINE
8
Black
10
92.7821
20
-93.175
11
93.0679
21
-93.0321
0
LINE
8
Black
10
93.0679
20
-93.0321
11
93.4964
21
-93.0321
0
LINE
8
Black
10
93.4964
20
-93.0321
11
93.7821
21
-93.175
0
LINE
8
Black
10
93.7821
20
-93.175
11
93.925
21
-93.4607
0
LINE
8
Black
10
93.925
20
-93.4607
11
93.925
21
-95.0321
0
LINE
8
Black
10
93.925
20
-93.4607
11
94.0679
21
-93.175
0
LINE
8
Black
10
94.0679
20
-93.175
11
94.3536
21
-93.0321
0
LINE
8
Black
10
94.3536
20
-93.0321
11
94.7821
21
-93.0321
0
LINE
8
Black
10
94.7821
20
-93.0321
11
95.0679
21
-93.175
0
LINE
8
Black
10
95.0679
20
-93.175
11
95.2107
21
-93.4607
0
LINE
8
Black
10
95.2107
20
-93.4607
11
95.2107
21
-95.0321
0
LINE
8
Black
10
101.068
20
-91.8893
11
98.4964
21
-95.7464
0
LINE
8
Black
10
104.925
20
-92.0321
11
105.211
21
-92.0321
0
LINE
8
Black
10
105.211
20
-92.0321
11
105.496
21
-92.175
0
LINE
8
Black
10
105.496
20
-92.175
11
105.639
21
-92.3179
0
LINE
8
Black
10
105.639
20
-92.3179
11
105.782
21
-92.6036
0
LINE
8
Black
10
105.782
20
-92.6036
11
105.925
21
-93.175
0
LINE
8
Black
10
105.925
20
-93.175
11
105.925
21
-93.8893
0
LINE
8
Black
10
105.925
20
-93.8893
11
105.782
21
-94.4607
0
LINE
8
Black
10
105.782
20
-94.4607
11
105.639
21
-94.7464
0
LINE
8
Black
10
105.639
20
-94.7464
11
105.496
21
-94.8893
0
LINE
8
Black
10
105.496
20
-94.8893
11
105.211
21
-95.0321
0
LINE
8
Black
10
105.211
20
-95.0321
11
104.925
21
-95.0321
0
LINE
8
Black
10
104.925
20
-95.0321
11
104.639
21
-94.8893
0
LINE
8
Black
10
104.639
20
-94.8893
11
104.496
21
-94.7464
0
LINE
8
Black
10
104.496
20
-94.7464
11
104.354
21
-94.4607
0
LINE
8
Black
10
104.354
20
-94.4607
11
104.211
21
-93.8893
0
LINE
8
Black
10
104.211
20
-93.8893
11
104.211
21
-93.175
0
LINE
8
Black
10
104.211
20
-93.175
11
104.354
21
-92.6036
0
LINE
8
Black
10
104.354
20
-92.6036
11
104.496
21
-92.3179
0
LINE
8
Black
10
104.496
20
-92.3179
11
104.639
21
-92.175
0
LINE
8
Black
10
104.639
20
-92.175
11
104.925
21
-92.0321
0
LINE
8
Black
10
107.211
20
-94.7464
11
107.354
21
-94.8893
0
LINE
8
Black
10
107.354
20
-94.8893
11
107.211
21
-95.0321
0
LINE
8
Black
10
107.211
20
-95.0321
11
107.068
21
-94.8893
0
LINE
8
Black
10
107.068
20
-94.8893
11
107.211
21
-94.7464
0
LINE
8
Black
10
107.211
20
-94.7464
11
107.211
21
-95.0321
0
LINE
8
Black
10
109.211
20
-92.0321
11
109.496
21
-92.0321
0
LINE
8
Black
10
109.496
20
-92.0321
11
109.782
21
-92.175
0
LINE
8
Black
10
109.782
20
-92.175
11
109.925
21
-92.3179
0
LINE
8
Black
10
109.925
20
-92.3179
11
110.068
21
-92.6036
0
LINE
8
Black
10
110.068
20
-92.6036
11
110.211
21
-93.175
0
LINE
8
Black
10
110.211
20
-93.175
11
110.211
21
-93.8893
0
LINE
8
Black
10
110.211
20
-93.8893
11
110.068
21
-94.4607
0
LINE
8
Black
10
110.068
20
-94.4607
11
109.925
21
-94.7464
0
LINE
8
Black
10
109.925
20
-94.7464
11
109.782
21
-94.8893
0
LINE
8
Black
10
109.782
20
-94.8893
11
109.496
21
-95.0321
0
LINE
8
Black
10
109.496
20
-95.0321
11
109.211
21
-95.0321
0
LINE
8
Black
10
109.211
20
-95.0321
11
108.925
21
-94.8893
0
LINE
8
Black
10
108.925
20
-94.8893
11
108.782
21
-94.7464
0
LINE
8
Black
10
108.782
20
-94.7464
11
108.639
21
-94.4607
0
LINE
8
Black
10
108.639
20
-94.4607
11
108.496
21
-93.8893
0
LINE
8
Black
10
108.496
20
-93.8893
11
108.496
21
-93.175
0
LINE
8
Black
10
108.496
20
-93.175
11
108.639
21
-92.6036
0
LINE
8
Black
10
108.639
20
-92.6036
11
108.782
21
-92.3179
0
LINE
8
Black
10
108.782
20
-92.3179
11
108.925
21
-92.175
0
LINE
8
Black
10
108.925
20
-92.175
11
109.211
21
-92.0321
0
LINE
8
Black
10
111.211
20
-92.0321
11
113.068
21
-92.0321
0
LINE
8
Black
10
113.068
20
-92.0321
11
112.068
21
-93.175
0
LINE
8
Black
10
112.068
20
-93.175
11
112.496
21
-93.175
0
LINE
8
Black
10
112.496
20
-93.175
11
112.782
21
-93.3179
0
LINE
8
Black
10
112.782
20
-93.3179
11
112.925
21
-93.4607
0
LINE
8
Black
10
112.925
20
-93.4607
11
113.068
21
-93.7464
0
LINE
8
Black
10
113.068
20
-93.7464
11
113.068
21
-94.4607
0
LINE
8
Black
10
113.068
20
-94.4607
11
112.925
21
-94.7464
0
LINE
8
Black
10
112.925
20
-94.7464
11
112.782
21
-94.8893
0
LINE
8
Black
10
112.782
20
-94.8893
11
112.496
21
-95.0321
0
LINE
8
Black
10
112.496
20
-95.0321
11
111.639
21
-95.0321
0
LINE
8
Black
10
111.639
20
-95.0321
11
111.354
21
-94.8893
0
LINE
8
Black
10
111.354
20
-94.8893
11
111.211
21
-94.7464
0
LINE
8
Black
10
115.925
20
-95.0321
11
114.211
21
-95.0321
0
LINE
8
Black
10
115.068
20
-95.0321
11
115.068
21
-92.0321
0
LINE
8
Black
10
115.068
20
-92.0321
11
114.782
21
-92.4607
0
LINE
8
Black
10
114.782
20
-92.4607
11
114.496
21
-92.7464
0
LINE
8
Black
10
114.496
20
-92.7464
11
114.211
21
-92.8893
0
LINE
8
Black
10
117.068
20
-92.0321
11
117.068
21
-92.6036
0
LINE
8
Black
10
118.211
20
-92.0321
11
118.211
21
-92.6036
0
LINE
8
Black
10
122.639
20
-96.175
11
122.496
21
-96.0321
0
LINE
8
Black
10
122.496
20
-96.0321
11
122.211
21
-95.6036
0
LINE
8
Black
10
122.211
20
-95.6036
11
122.068
21
-95.3179
0
LINE
8
Black
10
122.068
20
-95.3179
11
121.925
21
-94.8893
0
LINE
8
Black
10
121.925
20
-94.8893
11
121.782
21
-94.175
0
LINE
8
Black
10
121.782
20
-94.175
11
121.782
21
-93.6036
0
LINE
8
Black
10
121.782
20
-93.6036
11
121.925
21
-92.8893
0
LINE
8
Black
10
121.925
20
-92.8893
11
122.068
21
-92.4607
0
LINE
8
Black
10
122.068
20
-92.4607
11
122.211
21
-92.175
0
LINE
8
Black
10
122.211
20
-92.175
11
122.496
21
-91.7464
0
LINE
8
Black
10
122.496
20
-91.7464
11
122.639
21
-91.6036
0
LINE
8
Black
10
123.925
20
-95.0321
11
124.496
21
-95.0321
0
LINE
8
Black
10
124.496
20
-95.0321
11
124.782
21
-94.8893
0
LINE
8
Black
10
124.782
20
-94.8893
11
124.925
21
-94.7464
0
LINE
8
Black
10
124.925
20
-94.7464
11
125.211
21
-94.3179
0
LINE
8
Black
10
125.211
20
-94.3179
11
125.354
21
-93.7464
0
LINE
8
Black
10
125.354
20
-93.7464
11
125.354
21
-92.6036
0
LINE
8
Black
10
125.354
20
-92.6036
11
125.211
21
-92.3179
0
LINE
8
Black
10
125.211
20
-92.3179
11
125.068
21
-92.175
0
LINE
8
Black
10
125.068
20
-92.175
11
124.782
21
-92.0321
0
LINE
8
Black
10
124.782
20
-92.0321
11
124.211
21
-92.0321
0
LINE
8
Black
10
124.211
20
-92.0321
11
123.925
21
-92.175
0
LINE
8
Black
10
123.925
20
-92.175
11
123.782
21
-92.3179
0
LINE
8
Black
10
123.782
20
-92.3179
11
123.639
21
-92.6036
0
LINE
8
Black
10
123.639
20
-92.6036
11
123.639
21
-93.3179
0
LINE
8
Black
10
123.639
20
-93.3179
11
123.782
21
-93.6036
0
LINE
8
Black
10
123.782
20
-93.6036
11
123.925
21
-93.7464
0
LINE
8
Black
10
123.925
20
-93.7464
11
124.211
21
-93.8893
0
LINE
8
Black
10
124.211
20
-93.8893
11
124.782
21
-93.8893
0
LINE
8
Black
10
124.782
20
-93.8893
11
125.068
21
-93.7464
0
LINE
8
Black
10
125.068
20
-93.7464
11
125.211
21
-93.6036
0
LINE
8
Black
10
125.211
20
-93.6036
11
125.354
21
-93.3179
0
LINE
8
Black
10
128.925
20
-95.0321
11
128.925
21
-92.0321
0
LINE
8
Black
10
130.211
20
-95.0321
11
130.211
21
-93.4607
0
LINE
8
Black
10
130.211
20
-93.4607
11
130.068
21
-93.175
0
LINE
8
Black
10
130.068
20
-93.175
11
129.782
21
-93.0321
0
LINE
8
Black
10
129.782
20
-93.0321
11
129.354
21
-93.0321
0
LINE
8
Black
10
129.354
20
-93.0321
11
129.068
21
-93.175
0
LINE
8
Black
10
129.068
20
-93.175
11
128.925
21
-93.3179
0
LINE
8
Black
10
132.068
20
-95.0321
11
131.782
21
-94.8893
0
LINE
8
Black
10
131.782
20
-94.8893
11
131.639
21
-94.7464
0
LINE
8
Black
10
131.639
20
-94.7464
11
131.496
21
-94.4607
0
LINE
8
Black
10
131.496
20
-94.4607
11
131.496
21
-93.6036
0
LINE
8
Black
10
131.496
20
-93.6036
11
131.639
21
-93.3179
0
LINE
8
Black
10
131.639
20
-93.3179
11
131.782
21
-93.175
0
LINE
8
Black
10
131.782
20
-93.175
11
132.068
21
-93.0321
0
LINE
8
Black
10
132.068
20
-93.0321
11
132.496
21
-93.0321
0
LINE
8
Black
10
132.496
20
-93.0321
11
132.782
21
-93.175
0
LINE
8
Black
10
132.782
20
-93.175
11
132.925
21
-93.3179
0
LINE
8
Black
10
132.925
20
-93.3179
11
133.068
21
-93.6036
0
LINE
8
Black
10
133.068
20
-93.6036
11
133.068
21
-94.4607
0
LINE
8
Black
10
133.068
20
-94.4607
11
132.925
21
-94.7464
0
LINE
8
Black
10
132.925
20
-94.7464
11
132.782
21
-94.8893
0
LINE
8
Black
10
132.782
20
-94.8893
11
132.496
21
-95.0321
0
LINE
8
Black
10
132.496
20
-95.0321
11
132.068
21
-95.0321
0
LINE
8
Black
10
134.782
20
-95.0321
11
134.496
21
-94.8893
0
LINE
8
Black
10
134.496
20
-94.8893
11
134.354
21
-94.6036
0
LINE
8
Black
10
134.354
20
-94.6036
11
134.354
21
-92.0321
0
LINE
8
Black
10
137.068
20
-94.8893
11
136.782
21
-95.0321
0
LINE
8
Black
10
136.782
20
-95.0321
11
136.211
21
-95.0321
0
LINE
8
Black
10
136.211
20
-95.0321
11
135.925
21
-94.8893
0
LINE
8
Black
10
135.925
20
-94.8893
11
135.782
21
-94.6036
0
LINE
8
Black
10
135.782
20
-94.6036
11
135.782
21
-93.4607
0
LINE
8
Black
10
135.782
20
-93.4607
11
135.925
21
-93.175
0
LINE
8
Black
10
135.925
20
-93.175
11
136.211
21
-93.0321
0
LINE
8
Black
10
136.211
20
-93.0321
11
136.782
21
-93.0321
0
LINE
8
Black
10
136.782
20
-93.0321
11
137.068
21
-93.175
0
LINE
8
Black
10
137.068
20
-93.175
11
137.211
21
-93.4607
0
LINE
8
Black
10
137.211
20
-93.4607
11
137.211
21
-93.7464
0
LINE
8
Black
10
137.211
20
-93.7464
11
135.782
21
-94.0321
0
LINE
8
Black
10
138.354
20
-94.8893
11
138.639
21
-95.0321
0
LINE
8
Black
10
138.639
20
-95.0321
11
139.211
21
-95.0321
0
LINE
8
Black
10
139.211
20
-95.0321
11
139.496
21
-94.8893
0
LINE
8
Black
10
139.496
20
-94.8893
11
139.639
21
-94.6036
0
LINE
8
Black
10
139.639
20
-94.6036
11
139.639
21
-94.4607
0
LINE
8
Black
10
139.639
20
-94.4607
11
139.496
21
-94.175
0
LINE
8
Black
10
139.496
20
-94.175
11
139.211
21
-94.0321
0
LINE
8
Black
10
139.211
20
-94.0321
11
138.782
21
-94.0321
0
LINE
8
Black
10
138.782
20
-94.0321
11
138.496
21
-93.8893
0
LINE
8
Black
10
138.496
20
-93.8893
11
138.354
21
-93.6036
0
LINE
8
Black
10
138.354
20
-93.6036
11
138.354
21
-93.4607
0
LINE
8
Black
10
138.354
20
-93.4607
11
138.496
21
-93.175
0
LINE
8
Black
10
138.496
20
-93.175
11
138.782
21
-93.0321
0
LINE
8
Black
10
138.782
20
-93.0321
11
139.211
21
-93.0321
0
LINE
8
Black
10
139.211
20
-93.0321
11
139.496
21
-93.175
0
LINE
8
Black
10
140.639
20
-96.175
11
140.782
21
-96.0321
0
LINE
8
Black
10
140.782
20
-96.0321
11
141.068
21
-95.6036
0
LINE
8
Black
10
141.068
20
-95.6036
11
141.211
21
-95.3179
0
LINE
8
Black
10
141.211
20
-95.3179
11
141.354
21
-94.8893
0
LINE
8
Black
10
141.354
20
-94.8893
11
141.496
21
-94.175
0
LINE
8
Black
10
141.496
20
-94.175
11
141.496
21
-93.6036
0
LINE
8
Black
10
141.496
20
-93.6036
11
141.354
21
-92.8893
0
LINE
8
Black
10
141.354
20
-92.8893
11
141.211
21
-92.4607
0
LINE
8
Black
10
141.211
20
-92.4607
11
141.068
21
-92.175
0
LINE
8
Black
10
141.068
20
-92.175
11
140.782
21
-91.7464
0
LINE
8
Black
10
140.782
20
-91.7464
11
140.639
21
-91.6036
  0
ENDSEC
  0
EOF
